<svg width="60" height="53" viewBox="0 0 60 53" xmlns="http://www.w3.org/2000/svg"><defs><linearGradient x1="82.85%" y1="50%" x2="0%" y2="50%" id="a"><stop stop-color="#FF7676" offset="0%"/><stop stop-color="#F54EA2" offset="100%"/></linearGradient></defs><path d="M36.95.81a1.63 1.63 0 0 0-2.81 0l-4.31 7.47-4.26-7.4a1.63 1.63 0 0 0-2.82 0L.22 39.95a1.63 1.63 0 0 0 1.4 2.44h8.62l-4.26 7.4a1.63 1.63 0 0 0 1.4 2.43h45.07a1.63 1.63 0 0 0 1.4-2.44l-4.3-7.46h8.53a1.62 1.62 0 0 0 1.34-2.56L36.95.81zM24.16 4.95L38.2 29.3h-7.43l-5.08-8.8a1.62 1.62 0 0 0-.67-.64 1.62 1.62 0 0 0-2.27.56l-10.8 18.71h-7.5l19.7-34.17h.01zm-13.96 44l14.04-24.33 3.71 6.43-5.08 8.81c-.15.27-.23.58-.2.9a1.62 1.62 0 0 0 1.62 1.68h21.59l3.75 6.51H10.2zm16.98-9.9l3.71-6.44h10.17c.34 0 .66-.1.92-.28a1.62 1.62 0 0 0 .6-2.23L31.8 11.39l3.75-6.51 19.72 34.17H27.18z" fill="url(#a)" fill-rule="evenodd"/></svg>
