<svg width="35" height="31" viewBox="0 0 35 31" xmlns="http://www.w3.org/2000/svg"><defs><linearGradient x1="82.85%" y1="50%" x2="0%" y2="50%" id="a"><stop stop-color="#FF7676" offset="0%"/><stop stop-color="#F54EA2" offset="100%"/></linearGradient></defs><path d="M21.56.47a.95.95 0 0 0-1.65 0l-2.5 4.36L14.9.52a.95.95 0 0 0-1.64 0L.13 23.3a.95.95 0 0 0 .82 1.42h5.02L3.5 29.03a.95.95 0 0 0 .82 1.43h26.28a.95.95 0 0 0 .83-1.43l-2.51-4.35h4.97a.95.95 0 0 0 .78-1.5L21.56.49zM14.09 2.9l8.2 14.2h-4.34L15 11.94a.95.95 0 0 0-.4-.37.95.95 0 0 0-1.32.33l-6.3 10.91H2.6L14.1 2.9zM5.95 28.56l8.19-14.2 2.17 3.75-2.97 5.14a.95.95 0 0 0-.12.52.95.95 0 0 0 .95.99h12.6l2.18 3.8h-23zm9.9-5.78l2.17-3.76h5.93c.2 0 .39-.06.54-.16a.95.95 0 0 0 .35-1.3l-6.3-10.92 2.2-3.8 11.5 19.94H15.86z" fill="url(#a)" fill-rule="evenodd"/></svg>
