<svg width="207" height="181" viewBox="0 0 207 181" xmlns="http://www.w3.org/2000/svg"><path d="M128.1 2.82a5.65 5.65 0 0 0-9.76 0l-14.93 25.87L88.63 3.07a5.64 5.64 0 0 0-9.76 0L.75 138.45a5.66 5.66 0 0 0 4.89 8.46H35.5l-14.78 25.63A5.66 5.66 0 0 0 25.6 181h156.22a5.64 5.64 0 0 0 4.89-8.46l-14.93-25.88h29.58a5.63 5.63 0 0 0 4.63-8.85l-77.88-135zM83.76 17.17l48.68 84.36h-25.76L89.06 71a5.62 5.62 0 0 0-2.32-2.19 5.62 5.62 0 0 0-7.88 1.95l-37.42 64.87H15.4L83.75 17.17zM35.35 169.7l48.68-84.36 12.88 22.31-17.62 30.53a5.63 5.63 0 0 0-.73 3.1 5.62 5.62 0 0 0 5.63 5.85h74.85l13.02 22.57H35.36zm58.88-34.33l12.87-22.32h35.25c1.18 0 2.27-.36 3.18-.98a5.62 5.62 0 0 0 2.1-7.73l-37.42-64.86 13.01-22.57 68.35 118.45H94.23z" fill="#000" fill-rule="evenodd"/></svg>
